<svg xmlns="http://www.w3.org/2000/svg" version="1.1" xmlns:xlink="http://www.w3.org/1999/xlink" width="512" height="512"><svg xmlns="http://www.w3.org/2000/svg" viewBox="0 0 512 512"><defs><style>.cls-1{fill:#80dbff;}.cls-2{fill:#9e6f46;}.cls-3{fill:#895c3a;}.cls-4{fill:#636978;}.cls-5{fill:#ffda45;}.cls-6{fill:#e5c438;}.cls-7{fill:#707789;}.cls-8{fill:#ffea92;}.cls-9{fill:#fff;}</style></defs><title>Development</title><g id="SvgjsG1003"><circle class="cls-1" cx="256" cy="256" r="256"></circle></g><g id="SvgjsG1002"><path class="cls-2" d="M413,274.08,392.87,254c4-26.54,4-52.65-.45-74.48a141.56,141.56,0,0,0-277.51,56.06c5.29,26.21,18.8,55.65,37.36,82.45a153.48,153.48,0,0,1,27.57,87.33v64.55a19.3,19.3,0,0,0,19.31,19.3h96.51A19.31,19.31,0,0,0,315,469.86V415.14a12.51,12.51,0,0,1,12.51-12.51h0a59,59,0,0,0,59-59v-47.3h17.32A13.05,13.05,0,0,0,413,274.08Z"></path><path class="cls-3" d="M168.53,235.53c5.29,26.21,18.81,55.65,37.36,82.45a153.48,153.48,0,0,1,27.57,87.33v64.55a19.3,19.3,0,0,0,19.3,19.3H199.14a19.3,19.3,0,0,1-19.3-19.3V405.31A153.48,153.48,0,0,0,152.27,318c-18.55-26.8-32.07-56.24-37.36-82.45a141.62,141.62,0,0,1,165.66-167l-1.31.25A141.57,141.57,0,0,0,168.53,235.53Z"></path><path class="cls-4" d="M220.82,226.3h58.84a0,0,0,0,1,0,0v37.17a29.42,29.42,0,0,1-29.42,29.42h0a29.42,29.42,0,0,1-29.42-29.42V226.3A0,0,0,0,1,220.82,226.3Z"></path><path class="cls-5" d="M332.68,105.28a82.44,82.44,0,1,0-139,60,77.45,77.45,0,0,1,23.79,47.22,10.36,10.36,0,0,0,10.34,9.06h44.87A10.35,10.35,0,0,0,283,212.47a75.59,75.59,0,0,1,23.37-46.81A82.22,82.22,0,0,0,332.68,105.28Z"></path><path class="cls-6" d="M284.41,201.81a74.89,74.89,0,0,0-2,10.67,10.34,10.34,0,0,1-10.32,9.07H227.23a10.38,10.38,0,0,1-10.35-9.07,77.46,77.46,0,0,0-23.78-47.22A82.39,82.39,0,0,1,209,33.61a82.3,82.3,0,0,0,7.38,111.92,77.38,77.38,0,0,1,23.78,47.22,10.39,10.39,0,0,0,10.35,9.06Z"></path><rect class="cls-7" x="211.31" y="221.55" width="77.86" height="21.84" rx="10.92"></rect><rect class="cls-7" x="211.31" y="254.31" width="77.86" height="21.84" rx="10.92"></rect><ellipse class="cls-8" cx="284.17" cy="61.59" rx="14.65" ry="20.79" transform="translate(23.91 191.24) rotate(-38.71)"></ellipse><ellipse class="cls-8" cx="309.9" cy="102.11" rx="8.71" ry="12.36" transform="translate(-15.99 118.25) rotate(-21.07)"></ellipse><path class="cls-9" d="M245.21,122.38a33.94,33.94,0,0,0-35.56-21.57c-7.56,1.08-13.73,5-17.36,11s-4.24,13.27-1.7,20.47a32.77,32.77,0,0,0,14.09,16.87A33.53,33.53,0,0,0,222,154.07a27.39,27.39,0,0,0,12.47-2.87v70H245V139.93A24.1,24.1,0,0,0,245.21,122.38Zm-35.05,17.7a22.24,22.24,0,0,1-9.6-11.35,12.48,12.48,0,0,1,10.58-17.45,18.42,18.42,0,0,1,2.69-.19,22.91,22.91,0,0,1,11.81,3.46,22.16,22.16,0,0,1,9.6,11.35,13.25,13.25,0,0,1-.76,11.46C230.21,144.4,219.3,145.62,210.16,140.08Z"></path><path class="cls-9" d="M306,111.78c-7.29-12-24.72-14.83-38.84-6.27-13,7.89-18.74,22.72-13.87,34.41v81.27h10.57v-70a27.39,27.39,0,0,0,12.47,2.87,33.5,33.5,0,0,0,17.27-4.95C307.73,140.55,313.3,123.8,306,111.78Zm-17.88,28.3c-9.14,5.54-20.05,4.32-24.32-2.72h0c-4.26-7-.3-17.27,8.84-22.81s20.05-4.33,24.32,2.71S297.27,134.54,288.13,140.08Z"></path></g></svg><style>@media (prefers-color-scheme: light) { :root { filter: none; } }
@media (prefers-color-scheme: dark) { :root { filter: none; } }
</style></svg>